SplineFontDB: 3.0
FontName: elian_cc_ext
FullName: Elian (CC, numerals)
FamilyName: Elian Extended
Weight: Regular
Copyright: Copyright Tim Howard (see CONTRIBUTORS), C.C. Elian (script author);
UComments: "2011-6-11: Created." 
Version: 001.000
ItalicAngle: 0
UnderlinePosition: -100
UnderlineWidth: 50
Ascent: 800
Descent: 200
LayerCount: 2
Layer: 0 0 "Back"  1
Layer: 1 0 "Fore"  0
NeedsXUIDChange: 1
XUID: [1021 637 1380666656 8955201]
FSType: 0
OS2Version: 0
OS2_WeightWidthSlopeOnly: 0
OS2_UseTypoMetrics: 1
CreationTime: 1307767741
ModificationTime: 1307997798
PfmFamily: 17
TTFWeight: 500
TTFWidth: 5
LineGap: 90
VLineGap: 0
OS2TypoAscent: 0
OS2TypoAOffset: 1
OS2TypoDescent: 0
OS2TypoDOffset: 1
OS2TypoLinegap: 90
OS2WinAscent: 0
OS2WinAOffset: 1
OS2WinDescent: 0
OS2WinDOffset: 1
HheadAscent: 0
HheadAOffset: 1
HheadDescent: 0
HheadDOffset: 1
OS2Vendor: 'PfEd'
DEI: 91125
LangName: 1033 
Encoding: win
UnicodeInterp: none
NameList: Adobe Glyph List
DisplaySize: -24
AntiAlias: 1
FitToEm: 1
WinInfo: 0 32 8
Grid
-1000 706 m 0
 2000 706 l 0
-1000 532 m 0
 2000 532 l 0
EndSplineSet
TeXData: 1 0 0 1048576 524288 349525 0 1048576 349525 783286 444596 497025 792723 393216 433062 380633 303038 157286 324010 404750 52429 2506097 1059062 262144
BeginChars: 256 95

StartChar: exclam
Encoding: 33 33 0
Width: 750
VWidth: 0
Flags: W
HStem: 0 150<300 450> 680 20G<300 450> 680 20G<300 450>
VStem: 300 150<0 150 225 700>
LayerCount: 2
Fore
SplineSet
300 0 m 25x90
 300 150 l 25
 450 150 l 25
 450 0 l 25
 300 0 l 25x90
300 225 m 29
 300 700 l 29
 450 700 l 29xd0
 450 225 l 29
 300 225 l 29
EndSplineSet
Validated: 1
EndChar

StartChar: A
Encoding: 65 65 1
Width: 750
VWidth: 0
Flags: W
HStem: 0 21G<575 725> 550 150<25 575>
VStem: 575 150<0 550>
LayerCount: 2
Fore
SplineSet
25 700 m 29
 725 700 l 29
 725 0 l 29
 575 0 l 29
 575 550 l 29
 25 550 l 29
 25 700 l 29
EndSplineSet
Validated: 1
EndChar

StartChar: B
Encoding: 66 66 2
Width: 750
VWidth: 0
Flags: W
HStem: 0 150<25 575> 550 150<25 575>
VStem: 575 150<150 550>
LayerCount: 2
Fore
SplineSet
25 700 m 29
 725 700 l 29
 725 0 l 29
 25 0 l 29
 25 150 l 29
 575 150 l 29
 575 550 l 29
 25 550 l 29
 25 700 l 29
EndSplineSet
Validated: 1
EndChar

StartChar: C
Encoding: 67 67 3
Width: 750
VWidth: 0
Flags: W
HStem: 0 150<25 575> 680 20G<575 725>
VStem: 575 150<150 700>
LayerCount: 2
Fore
SplineSet
25 0 m 25
 25 150 l 25
 575 150 l 25
 575 700 l 25
 725 700 l 25
 725 0 l 25
 25 0 l 25
EndSplineSet
Validated: 1
EndChar

StartChar: D
Encoding: 68 68 4
Width: 750
VWidth: 0
Flags: W
HStem: 0 21G<25 175 575 725> 550 150<175 575>
VStem: 25 150<0 550> 575 150<0 550>
LayerCount: 2
Fore
SplineSet
725 0 m 29
 575 0 l 29
 575 550 l 29
 175 550 l 25
 175 0 l 25
 25 0 l 25
 25 700 l 25
 725 700 l 29
 725 0 l 29
EndSplineSet
Validated: 1
EndChar

StartChar: O
Encoding: 79 79 5
Width: 750
VWidth: 0
Flags: W
HStem: 0 150<175 575> 680 20G<575 725> 680 20G<575 725>
VStem: 25 150<150 400> 575 150<150 700>
LayerCount: 2
Fore
SplineSet
25 400 m 29xd8
 175 400 l 29
 175 150 l 29
 575 150 l 29
 575 700 l 29
 725 700 l 29
 725 0 l 29
 25 0 l 29
 25 400 l 29xd8
EndSplineSet
Validated: 1
EndChar

StartChar: E
Encoding: 69 69 6
Width: 750
VWidth: 0
Flags: W
HStem: 0 150<175 575> 550 150<175 575>
VStem: 25 150<150 550> 575 150<150 550>
LayerCount: 2
Fore
SplineSet
175 550 m 29
 175 150 l 21
 575 150 l 13
 575 550 l 29
 175 550 l 29
725 0 m 29
 25 0 l 29
 25 700 l 21
 725 700 l 13
 725 0 l 29
EndSplineSet
Validated: 1
EndChar

StartChar: F
Encoding: 70 70 7
Width: 750
VWidth: 0
Flags: W
HStem: 0 150<175 575> 680 20G<25 175 575 725>
VStem: 25 150<150 700> 575 150<150 700>
LayerCount: 2
Fore
SplineSet
25 700 m 25
 175 700 l 25
 175 150 l 25
 575 150 l 29
 575 700 l 29
 725 700 l 29
 725 0 l 29
 25 0 l 25
 25 700 l 25
EndSplineSet
Validated: 1
EndChar

StartChar: G
Encoding: 71 71 8
Width: 750
VWidth: 0
Flags: W
HStem: 0 21G<25 175> 550 150<175 725>
VStem: 25 150<0 550>
LayerCount: 2
Fore
SplineSet
725 700 m 29
 725 550 l 25
 175 550 l 25
 175 0 l 25
 25 0 l 25
 25 700 l 25
 725 700 l 29
EndSplineSet
Validated: 1
EndChar

StartChar: J
Encoding: 74 74 9
Width: 750
VWidth: 0
Flags: W
HStem: 0 21G<425 575> 550 150<175 425>
VStem: 425 150<0 550>
LayerCount: 2
Fore
SplineSet
175 700 m 29
 575 700 l 29
 575 0 l 29
 425 0 l 29
 425 550 l 29
 175 550 l 29
 175 700 l 29
EndSplineSet
Validated: 1
EndChar

StartChar: b
Encoding: 98 98 10
Width: 750
VWidth: 0
Flags: W
HStem: 0 150<100 500> 400 150<100 500>
VStem: 500 150<150 400>
LayerCount: 2
Fore
SplineSet
100 550 m 29
 650 550 l 29
 650 0 l 29
 100 0 l 29
 100 150 l 29
 500 150 l 29
 500 400 l 29
 100 400 l 29
 100 550 l 29
EndSplineSet
Validated: 1
EndChar

StartChar: H
Encoding: 72 72 11
Width: 750
VWidth: 0
Flags: W
HStem: 0 150<175 725> 550 150<175 725>
VStem: 25 150<150 550>
LayerCount: 2
Fore
SplineSet
725 0 m 29
 25 0 l 25
 25 700 l 25
 725 700 l 29
 725 550 l 29
 175 550 l 25
 175 150 l 25
 725 150 l 29
 725 0 l 29
EndSplineSet
Validated: 1
EndChar

StartChar: I
Encoding: 73 73 12
Width: 750
VWidth: 0
Flags: W
HStem: 0 150<175 725> 680 20G<25 175>
VStem: 25 150<150 700>
LayerCount: 2
Fore
SplineSet
25 700 m 29
 175 700 l 29
 175 150 l 29
 725 150 l 29
 725 0 l 29
 25 0 l 29
 25 700 l 29
EndSplineSet
Validated: 1
EndChar

StartChar: R
Encoding: 82 82 13
Width: 750
VWidth: 0
Flags: W
HStem: 0 150<325 575> 680 20G<175 325>
VStem: 175 150<150 700>
LayerCount: 2
Fore
SplineSet
575 0 m 29
 175 0 l 29
 175 700 l 29
 325 700 l 29
 325 150 l 29
 575 150 l 29
 575 0 l 29
EndSplineSet
Validated: 1
EndChar

StartChar: S
Encoding: 83 83 14
Width: 750
VWidth: 0
Flags: W
HStem: 0 21G<575 725> 0 21G<575 725> 250 150<275 425> 550 150<25 575>
VStem: 275 150<250 400> 575 150<0 550>
LayerCount: 2
Fore
SplineSet
25 700 m 29xbc
 725 700 l 29
 725 0 l 29
 575 0 l 29
 575 550 l 29
 25 550 l 29
 25 700 l 29xbc
425 250 m 29
 275 250 l 29
 275 400 l 29
 425 400 l 29
 425 250 l 29
EndSplineSet
Validated: 1
EndChar

StartChar: W
Encoding: 87 87 15
Width: 750
VWidth: 0
Flags: WO
HStem: 0 150<175 575> 275 150<300 450> 550 150<175 575>
VStem: 25 150<150 550> 300 150<275 425> 575 150<150 550>
CounterMasks: 1 fc
LayerCount: 2
Fore
SplineSet
175 550 m 25
 175 150 l 17
 575 150 l 9
 575 550 l 25
 175 550 l 25
725 0 m 25
 25 0 l 25
 25 700 l 17
 725 700 l 9
 725 0 l 25
300 275 m 29
 300 425 l 21
 450 425 l 13
 450 275 l 29
 300 275 l 29
EndSplineSet
EndChar

StartChar: U
Encoding: 85 85 16
Width: 750
VWidth: 0
Flags: W
HStem: 0 150<25 575> 300 150<275 425> 680 20G<575 725> 680 20G<575 725>
VStem: 275 150<300 450> 575 150<150 700>
LayerCount: 2
Fore
SplineSet
25 0 m 29xec
 25 150 l 29
 575 150 l 29
 575 700 l 29
 725 700 l 29
 725 0 l 29
 25 0 l 29xec
425 450 m 29
 425 300 l 29
 275 300 l 29
 275 450 l 29
 425 450 l 29
EndSplineSet
Validated: 1
EndChar

StartChar: K
Encoding: 75 75 17
Width: 750
VWidth: 0
Flags: W
HStem: 0 150<25 575> 550 150<325 575>
VStem: 575 150<150 550>
LayerCount: 2
Fore
SplineSet
325 700 m 29
 725 700 l 29
 725 0 l 29
 25 0 l 29
 25 150 l 29
 575 150 l 29
 575 550 l 29
 325 550 l 29
 325 700 l 29
EndSplineSet
Validated: 1
EndChar

StartChar: L
Encoding: 76 76 18
Width: 750
VWidth: 0
Flags: W
HStem: 0 150<175 425> 680 20G<425 575>
VStem: 425 150<150 700>
LayerCount: 2
Fore
SplineSet
175 0 m 29
 175 150 l 29
 425 150 l 29
 425 700 l 29
 575 700 l 29
 575 0 l 29
 175 0 l 29
EndSplineSet
Validated: 1
EndChar

StartChar: M
Encoding: 77 77 19
Width: 750
VWidth: 0
Flags: W
HStem: 0 21G<575 725> 550 150<175 575>
VStem: 25 150<300 550> 575 150<0 550>
LayerCount: 2
Fore
SplineSet
25 300 m 29
 25 700 l 29
 725 700 l 29
 725 0 l 29
 575 0 l 29
 575 550 l 29
 175 550 l 29
 175 300 l 29
 25 300 l 29
EndSplineSet
Validated: 1
EndChar

StartChar: N
Encoding: 78 78 20
Width: 750
VWidth: 0
Flags: W
HStem: 0 150<175 575> 550 150<175 575>
VStem: 25 150<150 550 700 950> 575 150<150 550>
LayerCount: 2
Fore
SplineSet
175 550 m 29
 175 150 l 21
 575 150 l 13
 575 550 l 29
 175 550 l 29
725 700 m 29
 725 0 l 29
 25 0 l 29
 25 950 l 29
 175 950 l 29
 175 700 l 29
 725 700 l 29
EndSplineSet
Validated: 1
EndChar

StartChar: P
Encoding: 80 80 21
Width: 750
VWidth: 0
Flags: HW
LayerCount: 2
Fore
SplineSet
575 700 m 29
 575 550 l 29
 325 550 l 29
 325 0 l 29
 175 0 l 29
 175 700 l 29
 575 700 l 29
EndSplineSet
Validated: 1
EndChar

StartChar: Q
Encoding: 81 81 22
Width: 750
VWidth: 0
Flags: HW
LayerCount: 2
Fore
SplineSet
425 700 m 29
 425 550 l 29
 175 550 l 29
 175 150 l 29
 725 150 l 29
 725 0 l 29
 25 0 l 29
 25 700 l 29
 425 700 l 29
EndSplineSet
Validated: 1
EndChar

StartChar: a
Encoding: 97 97 23
Width: 750
VWidth: 0
Flags: HMW
HStem: 0 21G<500 650> 400 150<100 500> 817 60
VStem: 500 150<0 400>
LayerCount: 2
Fore
SplineSet
100 550 m 29
 650 550 l 29
 650 0 l 29
 500 0 l 29
 500 400 l 29
 100 400 l 29
 100 550 l 29
EndSplineSet
Validated: 1
EndChar

StartChar: h
Encoding: 104 104 24
Width: 750
VWidth: 0
Flags: W
HStem: 0 150<250 650> 400 150<250 650>
VStem: 100 150<150 400>
LayerCount: 2
Fore
SplineSet
650 0 m 29
 100 0 l 29
 100 550 l 29
 650 550 l 29
 650 400 l 29
 250 400 l 29
 250 150 l 29
 650 150 l 29
 650 0 l 29
EndSplineSet
Validated: 1
EndChar

StartChar: k
Encoding: 107 107 25
Width: 750
VWidth: 0
Flags: W
HStem: 0 150<100 500> 400 150<350 500>
VStem: 500 150<150 400>
LayerCount: 2
Fore
SplineSet
350 550 m 29
 650 550 l 29
 650 0 l 29
 100 0 l 29
 100 150 l 29
 500 150 l 29
 500 400 l 29
 350 400 l 29
 350 550 l 29
EndSplineSet
Validated: 1
EndChar

StartChar: l
Encoding: 108 108 26
Width: 750
VWidth: 0
Flags: W
HStem: 0 150<225 375> 530 20G<375 525>
VStem: 375 150<150 550>
LayerCount: 2
Fore
SplineSet
225 0 m 29
 225 150 l 29
 375 150 l 29
 375 550 l 29
 525 550 l 29
 525 0 l 29
 225 0 l 29
EndSplineSet
Validated: 1
EndChar

StartChar: c
Encoding: 99 99 27
Width: 750
VWidth: 0
Flags: W
HStem: 0 150<100 500>
VStem: 500 150<150 550>
LayerCount: 2
Fore
SplineSet
100 0 m 29
 100 150 l 29
 500 150 l 29
 500 550 l 29
 650 550 l 29
 650 0 l 29
 100 0 l 29
EndSplineSet
Validated: 1
EndChar

StartChar: d
Encoding: 100 100 28
Width: 750
VWidth: 0
Flags: W
HStem: 0 21G<100 250 500 650> 400 150<250 500>
VStem: 100 150<0 400> 500 150<0 400>
LayerCount: 2
Fore
SplineSet
650 0 m 29
 500 0 l 29
 500 400 l 29
 250 400 l 29
 250 0 l 29
 100 0 l 29
 100 550 l 29
 650 550 l 29
 650 0 l 29
EndSplineSet
Validated: 1
EndChar

StartChar: e
Encoding: 101 101 29
Width: 750
VWidth: 0
Flags: W
HStem: 0 150<250 500> 400 150<250 500>
VStem: 100 150<150 400> 500 150<150 400>
LayerCount: 2
Fore
SplineSet
250 400 m 29
 250 150 l 21
 500 150 l 13
 500 400 l 29
 250 400 l 29
650 0 m 29
 100 0 l 29
 100 550 l 21
 650 550 l 13
 650 0 l 29
EndSplineSet
Validated: 1
EndChar

StartChar: f
Encoding: 102 102 30
Width: 750
VWidth: 0
Flags: W
HStem: 0 150<250 500>
VStem: 100 150<150 550> 500 150<150 550>
LayerCount: 2
Fore
SplineSet
100 550 m 29
 250 550 l 29
 250 150 l 29
 500 150 l 29
 500 550 l 29
 650 550 l 29
 650 0 l 29
 100 0 l 29
 100 550 l 29
EndSplineSet
Validated: 1
EndChar

StartChar: g
Encoding: 103 103 31
Width: 750
VWidth: 0
Flags: W
HStem: 0 21G<100 250> 400 150<250 650>
VStem: 100 150<0 400>
LayerCount: 2
Fore
SplineSet
650 550 m 29
 650 400 l 29
 250 400 l 29
 250 0 l 29
 100 0 l 29
 100 550 l 29
 650 550 l 29
EndSplineSet
Validated: 1
EndChar

StartChar: i
Encoding: 105 105 32
Width: 750
VWidth: 0
Flags: W
HStem: 0 150<250 650>
VStem: 100 150<150 550>
LayerCount: 2
Fore
SplineSet
100 550 m 29
 250 550 l 29
 250 150 l 29
 650 150 l 29
 650 0 l 29
 100 0 l 29
 100 550 l 29
EndSplineSet
Validated: 1
EndChar

StartChar: j
Encoding: 106 106 33
Width: 750
VWidth: 0
Flags: W
HStem: 0 21G<375 525> 400 150<225 375>
VStem: 375 150<0 400>
LayerCount: 2
Fore
SplineSet
225 550 m 29
 525 550 l 29
 525 0 l 29
 375 0 l 29
 375 400 l 29
 225 400 l 29
 225 550 l 29
EndSplineSet
Validated: 1
EndChar

StartChar: m
Encoding: 109 109 34
Width: 750
VWidth: 0
Flags: W
HStem: 0 21G<500 650> 400 150<250 500>
VStem: 100 150<250 400> 500 150<0 400>
LayerCount: 2
Fore
SplineSet
100 250 m 29
 100 550 l 29
 650 550 l 29
 650 0 l 29
 500 0 l 29
 500 400 l 29
 250 400 l 29
 250 250 l 29
 100 250 l 29
EndSplineSet
Validated: 1
EndChar

StartChar: n
Encoding: 110 110 35
Width: 750
VWidth: 0
Flags: W
HStem: 0 150<250 500> 400 150<250 500> 680 20G<100 250>
VStem: 100 150<150 400 550 700> 500 150<150 400>
LayerCount: 2
Fore
SplineSet
250 400 m 29
 250 150 l 21
 500 150 l 13
 500 400 l 29
 250 400 l 29
650 550 m 29
 650 0 l 29
 100 0 l 29
 100 700 l 29
 250 700 l 29
 250 550 l 29
 650 550 l 29
EndSplineSet
Validated: 1
EndChar

StartChar: o
Encoding: 111 111 36
Width: 750
VWidth: 0
Flags: W
HStem: 0 150<250 500> 530 20G<500 650> 530 20G<500 650>
VStem: 100 150<150 300> 500 150<150 550>
LayerCount: 2
Fore
SplineSet
100 300 m 29xd8
 250 300 l 29
 250 150 l 29
 500 150 l 29
 500 550 l 29
 650 550 l 29
 650 0 l 29
 100 0 l 29
 100 300 l 29xd8
EndSplineSet
Validated: 1
EndChar

StartChar: p
Encoding: 112 112 37
Width: 750
VWidth: 0
Flags: W
HStem: 0 21G<225 375> 0 21G<225 375> 400 150<375 525>
VStem: 225 150<0 400>
LayerCount: 2
Fore
SplineSet
525 550 m 29xb0
 525 400 l 29
 375 400 l 29
 375 0 l 29
 225 0 l 29
 225 550 l 29
 525 550 l 29xb0
EndSplineSet
Validated: 1
EndChar

StartChar: q
Encoding: 113 113 38
Width: 750
VWidth: 0
Flags: HW
LayerCount: 2
Fore
SplineSet
400 550 m 29
 400 400 l 29
 250 400 l 29
 250 150 l 29
 650 150 l 29
 650 0 l 29
 100 0 l 29
 100 550 l 29
 400 550 l 29
EndSplineSet
Validated: 1
EndChar

StartChar: r
Encoding: 114 114 39
Width: 750
VWidth: 0
Flags: W
HStem: 0 150<375 525> 530 20G<225 375> 530 20G<225 375>
VStem: 225 150<150 550>
LayerCount: 2
Fore
SplineSet
525 0 m 29xd0
 225 0 l 29
 225 550 l 29
 375 550 l 29
 375 150 l 29
 525 150 l 29
 525 0 l 29xd0
EndSplineSet
Validated: 1
EndChar

StartChar: s
Encoding: 115 115 40
Width: 750
VWidth: 0
Flags: W
HStem: 0 21G<500 650> 0 21G<500 650> 150 150<250 400> 400 150<100 500>
VStem: 250 150<150 300> 500 150<0 400>
LayerCount: 2
Fore
SplineSet
400 150 m 29x3c
 250 150 l 29
 250 300 l 29
 400 300 l 29
 400 150 l 29x3c
100 550 m 25
 650 550 l 25
 650 0 l 25
 500 0 l 25xbc
 500 400 l 25
 100 400 l 25
 100 550 l 25
EndSplineSet
Validated: 1
EndChar

StartChar: T
Encoding: 84 84 41
Width: 750
VWidth: 0
Flags: W
HStem: 0 150<25 575> 275 150<275 425> 550 150<25 575>
VStem: 275 150<275 425> 575 150<150 550>
CounterMasks: 1 e0
LayerCount: 2
Fore
SplineSet
25 700 m 29
 725 700 l 29
 725 0 l 29
 25 0 l 29
 25 150 l 29
 575 150 l 29
 575 550 l 29
 25 550 l 29
 25 700 l 29
425 275 m 29
 275 275 l 29
 275 425 l 21
 425 425 l 13
 425 275 l 29
EndSplineSet
Validated: 1
EndChar

StartChar: t
Encoding: 116 116 42
Width: 750
VWidth: 0
Flags: W
HStem: 0 150<100 500> 225 100<250 400> 400 150<100 500>
VStem: 250 150<225 325> 500 150<150 400>
CounterMasks: 1 e0
LayerCount: 2
Fore
SplineSet
400 225 m 29
 250 225 l 29
 250 325 l 21
 400 325 l 13
 400 225 l 29
100 550 m 29
 650 550 l 29
 650 0 l 29
 100 0 l 29
 100 150 l 29
 500 150 l 29
 500 400 l 29
 100 400 l 29
 100 550 l 29
EndSplineSet
Validated: 1
EndChar

StartChar: u
Encoding: 117 117 43
Width: 750
VWidth: 0
Flags: W
HStem: 0 150<100 500> 250 150<250 400> 530 20G<500 650> 530 20G<500 650>
VStem: 250 150<250 400> 500 150<150 550>
LayerCount: 2
Fore
SplineSet
400 400 m 29xcc
 400 250 l 29
 250 250 l 29
 250 400 l 29
 400 400 l 29xcc
100 0 m 29
 100 150 l 29
 500 150 l 29
 500 550 l 29
 650 550 l 29xec
 650 0 l 29
 100 0 l 29
EndSplineSet
Validated: 1
EndChar

StartChar: v
Encoding: 118 118 44
Width: 750
VWidth: 0
Flags: W
HStem: 0 21G<100 250 500 650> 0 21G<100 250 500 650> 150 150<325 425> 400 150<250 500>
VStem: 100 150<0 400> 325 100<150 300> 500 150<0 400>
CounterMasks: 1 0e
LayerCount: 2
Fore
SplineSet
425 300 m 29x3e
 425 150 l 29
 325 150 l 21
 325 300 l 13
 425 300 l 29x3e
100 0 m 29xbe
 100 550 l 29
 650 550 l 29
 650 0 l 29
 500 0 l 29
 500 400 l 29
 250 400 l 29
 250 0 l 29
 100 0 l 29xbe
EndSplineSet
EndChar

StartChar: V
Encoding: 86 86 45
Width: 750
VWidth: 0
Flags: W
HStem: 0 21G<25 175 575 725> 0 21G<25 175 575 725> 250 150<300 450> 550 150<175 575>
VStem: 25 150<0 550> 300 150<250 400> 575 150<0 550>
CounterMasks: 1 0e
LayerCount: 2
Fore
SplineSet
25 0 m 29xbe
 25 700 l 29
 725 700 l 29
 725 0 l 29
 575 0 l 29
 575 550 l 29
 175 550 l 29
 175 0 l 29
 25 0 l 29xbe
450 400 m 29
 450 250 l 29
 300 250 l 21
 300 400 l 13
 450 400 l 29
EndSplineSet
EndChar

StartChar: w
Encoding: 119 119 46
Width: 750
VWidth: 0
Flags: W
HStem: 0 150<250 500> 225 100<325 425> 400 150<250 500>
VStem: 100 150<150 400> 325 100<225 325> 500 150<150 400>
CounterMasks: 1 fc
LayerCount: 2
Fore
SplineSet
425 225 m 25
 325 225 l 25
 325 325 l 25
 425 325 l 25
 425 225 l 25
250 400 m 25
 250 150 l 17
 500 150 l 13
 500 400 l 25
 250 400 l 25
650 0 m 25
 100 0 l 25
 100 550 l 17
 650 550 l 9
 650 0 l 25
EndSplineSet
EndChar

StartChar: X
Encoding: 88 88 47
Width: 750
VWidth: 0
Flags: W
HStem: 0 150<175 575> 300 150<300 450> 680 20G<25 175 575 725> 680 20G<25 175 575 725>
VStem: 25 150<150 700> 300 150<300 450> 575 150<150 700>
CounterMasks: 1 0e
LayerCount: 2
Fore
SplineSet
25 700 m 29xee
 175 700 l 29
 175 150 l 29
 575 150 l 29
 575 700 l 29
 725 700 l 29
 725 0 l 29
 25 0 l 29
 25 700 l 29xee
450 300 m 29
 300 300 l 21
 300 450 l 13
 450 450 l 29
 450 300 l 29
EndSplineSet
EndChar

StartChar: x
Encoding: 120 120 48
Width: 750
VWidth: 0
Flags: W
HStem: 0 150<250 500> 250 150<325 425> 530 20G<100 250 500 650> 530 20G<100 250 500 650>
VStem: 100 150<150 550> 325 100<250 400> 500 150<150 550>
CounterMasks: 1 0e
LayerCount: 2
Fore
SplineSet
425 250 m 29xce
 325 250 l 21
 325 400 l 13
 425 400 l 29
 425 250 l 29xce
100 550 m 29xee
 250 550 l 29
 250 150 l 29
 500 150 l 29
 500 550 l 29
 650 550 l 29
 650 0 l 29
 100 0 l 29
 100 550 l 29xee
EndSplineSet
EndChar

StartChar: y
Encoding: 121 121 49
Width: 750
VWidth: 0
Flags: W
HStem: 0 21G<100 250> 0 21G<100 250> 150 150<350 500> 400 150<250 650>
VStem: 100 150<0 400> 350 150<150 300>
LayerCount: 2
Fore
SplineSet
350 150 m 29x3c
 350 300 l 29
 500 300 l 29
 500 150 l 29
 350 150 l 29x3c
650 550 m 29
 650 400 l 29
 250 400 l 29
 250 0 l 29
 100 0 l 29xbc
 100 550 l 29
 650 550 l 29
EndSplineSet
Validated: 1
EndChar

StartChar: Y
Encoding: 89 89 50
Width: 750
VWidth: 0
Flags: W
HStem: 0 21G<25 175> 0 21G<25 175> 250 150<325 475> 550 150<175 725>
VStem: 25 150<0 550> 325 150<250 400>
LayerCount: 2
Fore
SplineSet
25 0 m 29xbc
 25 700 l 29
 725 700 l 29
 725 550 l 29
 175 550 l 29
 175 0 l 29
 25 0 l 29xbc
475 400 m 29
 475 250 l 29
 325 250 l 29
 325 400 l 29
 475 400 l 29
EndSplineSet
Validated: 1
EndChar

StartChar: z
Encoding: 122 122 51
Width: 750
VWidth: 0
Flags: W
HStem: 0 150<250 650> 225 100<350 500> 400 150<250 650>
VStem: 100 150<150 400> 350 150<225 325>
CounterMasks: 1 e0
LayerCount: 2
Fore
SplineSet
350 225 m 29
 350 325 l 21
 500 325 l 13
 500 225 l 29
 350 225 l 29
650 550 m 29
 650 400 l 29
 250 400 l 29
 250 150 l 29
 650 150 l 29
 650 0 l 29
 100 0 l 29
 100 550 l 29
 650 550 l 29
EndSplineSet
EndChar

StartChar: Z
Encoding: 90 90 52
Width: 750
VWidth: 0
Flags: W
HStem: 0 150<175 725> 275 150<325 475> 550 150<175 725>
VStem: 25 150<150 550> 325 150<275 425>
CounterMasks: 1 e0
LayerCount: 2
Fore
SplineSet
725 700 m 25
 725 550 l 25
 175 550 l 25
 175 150 l 25
 725 150 l 25
 725 0 l 25
 25 0 l 25
 25 700 l 25
 725 700 l 25
325 275 m 29
 325 425 l 21
 475 425 l 13
 475 275 l 29
 325 275 l 29
EndSplineSet
EndChar

StartChar: zero
Encoding: 48 48 54
Width: 750
VWidth: 0
Flags: W
HStem: 0 150<175 725> 300 150<325 475> 680 20G<25 175> 680 20G<25 175>
VStem: 25 150<150 700> 325 150<300 450>
LayerCount: 2
Fore
SplineSet
25 700 m 29xec
 175 700 l 29
 175 150 l 29
 725 150 l 29
 725 0 l 29
 25 0 l 29
 25 700 l 29xec
475 300 m 29
 325 300 l 29
 325 450 l 29
 475 450 l 29
 475 300 l 29
EndSplineSet
Validated: 1
EndChar

StartChar: one
Encoding: 49 49 55
Width: 750
VWidth: 0
Flags: W
HStem: 0 21G<425 575> 0 21G<425 575> 325 150<250 350> 550 150<175 425>
VStem: 250 100<325 475> 425 150<0 550>
LayerCount: 2
Fore
SplineSet
350 325 m 29x3c
 250 325 l 29
 250 475 l 29
 350 475 l 29
 350 325 l 29x3c
175 700 m 29
 575 700 l 29
 575 0 l 29
 425 0 l 29xbc
 425 550 l 29
 175 550 l 29
 175 700 l 29
EndSplineSet
Validated: 1
EndChar

StartChar: two
Encoding: 50 50 56
Width: 750
VWidth: 0
Flags: W
HStem: 0 150<25 575> 300 100<350 500> 550 150<325 575>
VStem: 350 150<300 400> 575 150<150 550>
CounterMasks: 1 e0
LayerCount: 2
Fore
SplineSet
500 300 m 29
 350 300 l 29
 350 400 l 29
 500 400 l 29
 500 300 l 29
325 700 m 29
 725 700 l 29
 725 0 l 29
 25 0 l 29
 25 150 l 29
 575 150 l 29
 575 550 l 29
 325 550 l 29
 325 700 l 29
EndSplineSet
Validated: 1
EndChar

StartChar: three
Encoding: 51 51 57
Width: 750
VWidth: 0
Flags: W
HStem: 0 150<175 425> 225 150<250 350> 680 20G<425 575> 680 20G<425 575>
VStem: 250 100<225 375> 425 150<150 700>
LayerCount: 2
Fore
SplineSet
350 225 m 29xcc
 250 225 l 29
 250 375 l 29
 350 375 l 29
 350 225 l 29xcc
175 0 m 29
 175 150 l 29
 425 150 l 29
 425 700 l 29
 575 700 l 29xec
 575 0 l 29
 175 0 l 29
EndSplineSet
Validated: 1
EndChar

StartChar: four
Encoding: 52 52 58
Width: 750
VWidth: 0
Flags: W
HStem: 0 21G<575 725> 0 21G<575 725> 325 150<325 425> 550 150<175 575>
VStem: 25 150<300 550> 325 100<325 475> 575 150<0 550>
CounterMasks: 1 0e
LayerCount: 2
Fore
SplineSet
425 325 m 29x3e
 325 325 l 29
 325 475 l 29
 425 475 l 29
 425 325 l 29x3e
25 300 m 29
 25 700 l 29
 725 700 l 29
 725 0 l 29
 575 0 l 29xbe
 575 550 l 29
 175 550 l 29
 175 300 l 29
 25 300 l 29
EndSplineSet
Validated: 1
EndChar

StartChar: five
Encoding: 53 53 59
Width: 750
VWidth: 0
Flags: W
HStem: 0 150<175 575> 275 150<325 425> 550 150<175 575>
VStem: 25 150<150 550 700 950> 325 100<275 425> 575 150<150 550>
CounterMasks: 1 fc
LayerCount: 2
Fore
SplineSet
425 275 m 25
 325 275 l 25
 325 425 l 25
 425 425 l 25
 425 275 l 25
175 550 m 25
 175 150 l 17
 575 150 l 9
 575 550 l 25
 175 550 l 25
725 700 m 25
 725 0 l 25
 25 0 l 25
 25 950 l 17
 175 950 l 13
 175 700 l 25
 725 700 l 25
EndSplineSet
Validated: 1
EndChar

StartChar: six
Encoding: 54 54 60
Width: 750
VWidth: 0
Flags: W
HStem: 0 150<175 575> 300 150<325 425> 680 20G<575 725> 680 20G<575 725>
VStem: 25 150<150 400> 325 100<300 450> 575 150<150 700>
CounterMasks: 1 0e
LayerCount: 2
Fore
SplineSet
425 300 m 29xce
 325 300 l 29
 325 450 l 29
 425 450 l 29
 425 300 l 29xce
25 400 m 29
 175 400 l 29
 175 150 l 29
 575 150 l 29
 575 700 l 29
 725 700 l 29xee
 725 0 l 29
 25 0 l 29
 25 400 l 29
EndSplineSet
Validated: 1
EndChar

StartChar: seven
Encoding: 55 55 61
Width: 750
VWidth: 0
Flags: W
HStem: 0 21G<175 325> 0 21G<175 325> 325 150<400 500> 550 150<325 575>
VStem: 175 150<0 550> 400 100<325 475>
LayerCount: 2
Fore
SplineSet
500 325 m 29x3c
 400 325 l 29
 400 475 l 29
 500 475 l 29
 500 325 l 29x3c
575 700 m 29
 575 550 l 29
 325 550 l 29
 325 0 l 29
 175 0 l 29xbc
 175 700 l 29
 575 700 l 29
EndSplineSet
Validated: 1
EndChar

StartChar: eight
Encoding: 56 56 62
Width: 750
VWidth: 0
Flags: W
HStem: 0 150<175 725> 300 100<325 525> 550 150<175 425>
VStem: 25 150<150 550>
CounterMasks: 1 e0
LayerCount: 2
Fore
SplineSet
525 300 m 29
 325 300 l 29
 325 400 l 29
 525 400 l 29
 525 300 l 29
425 700 m 29
 425 550 l 29
 175 550 l 29
 175 150 l 29
 725 150 l 29
 725 0 l 29
 25 0 l 29
 25 700 l 29
 425 700 l 29
EndSplineSet
Validated: 1
EndChar

StartChar: nine
Encoding: 57 57 63
Width: 750
VWidth: 0
Flags: HW
LayerCount: 2
Fore
SplineSet
500 375 m 25
 500 225 l 25
 400 225 l 25
 400 375 l 25
 500 375 l 25
575 0 m 25
 175 0 l 25
 175 700 l 25
 325 700 l 25
 325 150 l 25
 575 150 l 25
 575 0 l 25
EndSplineSet
Validated: 1
EndChar

StartChar: asciitilde
Encoding: 126 126 64
Width: 750
VWidth: 0
Flags: W
HStem: 225 250<100 250 500 650>
VStem: 100 150<225 350> 500 150<350 475>
LayerCount: 2
Fore
SplineSet
500 475 m 13
 650 475 l 29
 650 225 l 29
 500 225 l 21
 250 350 l 5
 250 225 l 13
 100 225 l 29
 100 475 l 29
 250 475 l 29
 500 350 l 21
 500 475 l 13
EndSplineSet
Validated: 1
EndChar

StartChar: quotedbl
Encoding: 34 34 65
Width: 750
VWidth: 0
Flags: W
HStem: 450 250<175 325 425 575>
VStem: 175 150<450 700> 425 150<450 700>
LayerCount: 2
Fore
SplineSet
425 700 m 25
 575 700 l 25
 575 450 l 25
 425 450 l 25
 425 700 l 25
175 700 m 29
 325 700 l 29
 325 450 l 29
 175 450 l 29
 175 700 l 29
EndSplineSet
Validated: 1
EndChar

StartChar: quotesingle
Encoding: 39 39 66
Width: 750
VWidth: 0
Flags: W
HStem: 450 250<300 450>
VStem: 300 150<450 700>
LayerCount: 2
Fore
SplineSet
300 700 m 29
 450 700 l 29
 450 450 l 29
 300 450 l 29
 300 700 l 29
EndSplineSet
Validated: 1
EndChar

StartChar: at
Encoding: 64 64 67
Width: 750
VWidth: 0
Flags: W
HStem: 0 150<150 400> 328 150<250 500> 550 150<150 500>
VStem: 0 150<150 550> 500 150<78 328 478 550>
LayerCount: 2
Fore
SplineSet
0 0 m 25
 0 700 l 25
 650 700 l 25
 650 78 l 25
 500 78 l 25
 500 328 l 25
 250 328 l 25
 250 478 l 25
 500 478 l 25
 500 550 l 25
 150 550 l 25
 150 150 l 29
 400 150 l 29
 400 0 l 25
 0 0 l 25
0 0 m 25
EndSplineSet
Validated: 1
EndChar

StartChar: question
Encoding: 63 63 68
Width: 750
VWidth: 0
Flags: W
HStem: 0 150<300 450> 225 150<300 525> 550 150<225 525>
VStem: 75 150<375 550> 300 150<0 150> 525 150<375 550>
CounterMasks: 1 1c
LayerCount: 2
Fore
SplineSet
675 225 m 25
 300 225 l 25
 300 375 l 25
 525 375 l 25
 525 550 l 25
 225 550 l 25
 225 375 l 29
 75 375 l 29
 75 700 l 25
 675 700 l 25
 675 225 l 25
300 0 m 25
 300 150 l 25
 450 150 l 25
 450 0 l 25
 300 0 l 25
EndSplineSet
Validated: 1
EndChar

StartChar: numbersign
Encoding: 35 35 69
Width: 750
VWidth: 0
Flags: W
HStem: 0 21G<175 300 450 575> 0 21G<175 300 450 575> 150 125<25 175 300 450 575 725> 425 125<25 175 300 450 575 725> 680 20G<175 300 450 575> 680 20G<175 300 450 575>
VStem: 175 125<0 150 275 425 550 700> 450 125<0 150 275 425 550 700>
LayerCount: 2
Fore
SplineSet
450 275 m 25x33
 450 425 l 25
 300 425 l 25
 300 275 l 25
 450 275 l 25x33
575 150 m 25
 575 0 l 25
 450 0 l 25
 450 150 l 25
 300 150 l 25
 300 0 l 25
 175 0 l 25
 175 150 l 25
 25 150 l 25
 25 275 l 25
 175 275 l 25
 175 425 l 25
 25 425 l 25
 25 550 l 25
 175 550 l 25
 175 700 l 25
 300 700 l 25
 300 550 l 25
 450 550 l 25
 450 700 l 25
 575 700 l 25xbb
 575 550 l 25
 725 550 l 25
 725 425 l 25
 575 425 l 25
 575 275 l 25
 725 275 l 25
 725 150 l 25
 575 150 l 25
EndSplineSet
Validated: 1
EndChar

StartChar: dollar
Encoding: 36 36 70
Width: 750
VWidth: 0
Flags: W
HStem: 0 150<75 325 425 525> 275 150<225 325 425 525> 550 150<225 325 425 675>
VStem: 75 150<425 550> 325 100<-100 0 150 275 425 550 700 800> 525 150<150 275>
CounterMasks: 1 fc
LayerCount: 2
Fore
SplineSet
525 275 m 25
 425 275 l 25
 425 150 l 25
 525 150 l 25
 525 275 l 25
325 550 m 25
 225 550 l 25
 225 425 l 25
 325 425 l 25
 325 550 l 25
75 700 m 25
 325 700 l 25
 325 800 l 25
 425 800 l 25
 425 700 l 25
 675 700 l 25
 675 550 l 25
 425 550 l 25
 425 425 l 25
 675 425 l 25
 675 0 l 25
 425 0 l 25
 425 -100 l 17
 325 -100 l 9
 325 0 l 25
 75 0 l 25
 75 150 l 25
 325 150 l 25
 325 275 l 25
 75 275 l 25
 75 700 l 25
EndSplineSet
Validated: 1
EndChar

StartChar: percent
Encoding: 37 37 71
Width: 750
VWidth: 0
Flags: W
HStem: 0 75<550 650> 175 75<550 650> 450 75<100 200> 625 75<100 200>
VStem: 25 75<525 625> 200 75<525 625> 325 100<0 700> 475 75<75 175> 650 75<75 175>
LayerCount: 2
Fore
SplineSet
200 625 m 29
 100 625 l 29
 100 525 l 29
 200 525 l 29
 200 625 l 29
25 700 m 29
 275 700 l 29
 275 450 l 29
 25 450 l 29
 25 700 l 29
650 175 m 29
 550 175 l 29
 550 75 l 29
 650 75 l 29
 650 175 l 29
475 250 m 29
 725 250 l 29
 725 0 l 29
 475 0 l 29
 475 250 l 29
325 0 m 29
 325 700 l 29
 425 700 l 21
 425 0 l 13
 325 0 l 29
EndSplineSet
Validated: 1
EndChar

StartChar: ampersand
Encoding: 38 38 72
Width: 750
VWidth: 0
Flags: HW
HStem: 0 150<250 450 575 675> 300 100<250 375> 550 150<250 375>
VStem: 75 175<150 300 400 550>
CounterMasks: 1 e0
LayerCount: 2
Fore
SplineSet
250 550 m 29
 250 400 l 29
 375 400 l 29
 375 550 l 29
 250 550 l 29
250 300 m 29
 250 150 l 29
 450 150 l 21
 450 300 l 13
 250 300 l 29
471 401 m 29
 515 150 l 29
 675 150 l 29
 675 0 l 29
 75 0 l 29
 75 700 l 29
 525 700 l 29
 471 401 l 29
EndSplineSet
Validated: 1
EndChar

StartChar: asciicircum
Encoding: 94 94 73
Width: 750
VWidth: 0
Flags: W
HStem: 450 250
LayerCount: 2
Fore
SplineSet
50 450 m 29
 300 700 l 29
 450 700 l 29
 700 450 l 29
 550 450 l 29
 375 625 l 29
 200 450 l 29
 50 450 l 29
EndSplineSet
Validated: 1
EndChar

StartChar: asterisk
Encoding: 42 42 74
Width: 750
VWidth: 0
Flags: HW
LayerCount: 2
Fore
SplineSet
450 500 m 25
 550 400 l 25
 475 325 l 17
 375 425 l 9
 275 325 l 17
 200 400 l 9
 300 500 l 25
 175 500 l 25
 175 600 l 25
 325 600 l 25
 325 700 l 25
 425 700 l 25
 425 600 l 25
 575 600 l 25
 575 500 l 25
 450 500 l 25
EndSplineSet
Validated: 1
EndChar

StartChar: parenleft
Encoding: 40 40 75
Width: 750
VWidth: 0
Flags: W
HStem: 0 21G<380 420> 0 21G<380 420> 680 20G<380 420> 680 20G<380 420>
VStem: 250 125<225 475>
LayerCount: 2
Fore
SplineSet
375 225 m 29xa8
 500 100 l 29
 400 0 l 21
 250 150 l 13
 250 550 l 29
 400 700 l 29
 500 600 l 29
 375 475 l 29
 375 225 l 29xa8
EndSplineSet
Validated: 1
EndChar

StartChar: parenright
Encoding: 41 41 76
Width: 750
VWidth: 0
Flags: HW
HStem: 0 21G<330 370> 0 21G<330 370> 680 20G<330 370> 680 20G<330 370>
VStem: 375 125<225 475>
LayerCount: 2
Fore
SplineSet
375 225 m 29xa8
 375 475 l 29
 250 600 l 29
 350 700 l 29
 500 550 l 29
 500 150 l 21
 350 0 l 13
 250 100 l 29
 375 225 l 29xa8
EndSplineSet
Validated: 1
EndChar

StartChar: hyphen
Encoding: 45 45 77
Width: 750
VWidth: 0
Flags: W
HStem: 275 150<100 650>
LayerCount: 2
Fore
SplineSet
100 275 m 29
 100 425 l 29
 650 425 l 29
 650 275 l 29
 100 275 l 29
EndSplineSet
Validated: 1
EndChar

StartChar: underscore
Encoding: 95 95 78
Width: 750
VWidth: 0
Flags: W
HStem: -149 150<25 725>
LayerCount: 2
Fore
SplineSet
25 -149 m 29
 25 1 l 29
 725 1 l 29
 725 -149 l 29
 25 -149 l 29
EndSplineSet
Validated: 1
EndChar

StartChar: plus
Encoding: 43 43 79
Width: 750
VWidth: 0
Flags: W
HStem: 275 150<150 300 450 600> 555 20G<300 450>
VStem: 300 150<125 275 425 575>
LayerCount: 2
Fore
SplineSet
150 275 m 13
 150 425 l 21
 300 425 l 5
 300 575 l 5
 450 575 l 5
 450 425 l 5
 600 425 l 13
 600 275 l 21
 450 275 l 5
 450 125 l 5
 300 125 l 5
 300 275 l 5
 150 275 l 13
EndSplineSet
Validated: 1
EndChar

StartChar: equal
Encoding: 61 61 80
Width: 750
VWidth: 0
Flags: W
HStem: 125 150<100 650> 425 150<100 650>
LayerCount: 2
Fore
SplineSet
100 425 m 29
 100 575 l 29
 650 575 l 29
 650 425 l 29
 100 425 l 29
100 125 m 29
 100 275 l 29
 650 275 l 29
 650 125 l 29
 100 125 l 29
EndSplineSet
Validated: 1
EndChar

StartChar: period
Encoding: 46 46 81
Width: 750
VWidth: 0
Flags: W
HStem: 0 150<300 450>
VStem: 300 150<0 150>
LayerCount: 2
Fore
SplineSet
300 0 m 29
 300 150 l 29
 450 150 l 21
 450 0 l 13
 300 0 l 29
EndSplineSet
Validated: 1
EndChar

StartChar: comma
Encoding: 44 44 82
Width: 750
VWidth: 0
Flags: W
HStem: -150 300
VStem: 300 150<0 150>
LayerCount: 2
Fore
SplineSet
300 0 m 13
 300 150 l 29
 450 150 l 21
 450 0 l 5
 300 -150 l 5
 150 -150 l 5
 300 0 l 13
979 -234 m 25
EndSplineSet
Validated: 1
EndChar

StartChar: slash
Encoding: 47 47 83
Width: 750
VWidth: 0
Flags: W
HStem: 680 20G<559.286 595> 680 20G<559.286 595>
LayerCount: 2
Fore
SplineSet
575 700 m 29x80
 725 550 l 29
 175 -150 l 29
 25 0 l 29
 575 700 l 29x80
EndSplineSet
Validated: 1
EndChar

StartChar: backslash
Encoding: 92 92 84
Width: 750
VWidth: 0
Flags: W
HStem: 680 20G<155 190.714> 680 20G<155 190.714>
LayerCount: 2
Fore
SplineSet
175 700 m 29x80
 725 0 l 29
 575 -150 l 29
 25 550 l 29
 175 700 l 29x80
EndSplineSet
Validated: 1
EndChar

StartChar: colon
Encoding: 58 58 85
Width: 750
VWidth: 0
Flags: HMW
LayerCount: 2
Fore
SplineSet
300 400 m 29
 300 550 l 29
 450 550 l 21
 450 400 l 13
 300 400 l 29
300 0 m 25
 300 150 l 25
 450 150 l 17
 450 0 l 9
 300 0 l 25
EndSplineSet
Validated: 1
EndChar

StartChar: semicolon
Encoding: 59 59 86
Width: 750
VWidth: 0
Flags: W
HStem: 400 150<300 450>
VStem: 300 150<0 150 400 550>
LayerCount: 2
Fore
SplineSet
300 0 m 13
 300 150 l 29
 450 150 l 21
 450 0 l 5
 300 -150 l 5
 150 -150 l 5
 300 0 l 13
300 400 m 29
 300 550 l 29
 450 550 l 21
 450 400 l 13
 300 400 l 29
EndSplineSet
Validated: 1
EndChar

StartChar: less
Encoding: 60 60 87
Width: 750
VWidth: 0
Flags: HW
LayerCount: 2
Fore
SplineSet
550 550 m 29
 550 400 l 29
 275 275 l 29
 550 150 l 29
 550 0 l 29
 200 200 l 29
 200 350 l 29
 550 550 l 29
EndSplineSet
Validated: 1
EndChar

StartChar: greater
Encoding: 62 62 88
Width: 750
VWidth: 0
Flags: W
HStem: 0 21G<200 235> 0 21G<200 235> 530 20G<200 235> 530 20G<200 235>
LayerCount: 2
Fore
SplineSet
200 550 m 29xa0
 550 350 l 29
 550 200 l 29
 200 0 l 29
 200 150 l 29
 475 275 l 29
 200 400 l 29
 200 550 l 29xa0
EndSplineSet
Validated: 1
EndChar

StartChar: bar
Encoding: 124 124 89
Width: 750
VWidth: 0
Flags: W
HStem: 680 20G<300 450> 680 20G<300 450>
VStem: 300 150<-150 700>
LayerCount: 2
Fore
SplineSet
300 -150 m 29xa0
 300 700 l 25
 450 700 l 25
 450 -150 l 29
 300 -150 l 29xa0
EndSplineSet
Validated: 1
EndChar

StartChar: bracketleft
Encoding: 91 91 90
Width: 750
VWidth: 0
Flags: W
HStem: -150 150<375 525> 550 150<375 525>
VStem: 225 300<-150 0 550 700> 225 150<0 550>
LayerCount: 2
Fore
SplineSet
225 700 m 29xe0
 525 700 l 29
 525 550 l 29xe0
 375 550 l 29
 375 0 l 29xd0
 525 0 l 29
 525 -150 l 29
 225 -150 l 29
 225 700 l 29xe0
EndSplineSet
Validated: 1
EndChar

StartChar: bracketright
Encoding: 93 93 91
Width: 750
VWidth: 0
Flags: HW
VStem: 225 300
LayerCount: 2
Fore
SplineSet
525 700 m 29
 525 -150 l 29
 225 -150 l 29
 225 0 l 29
 375 0 l 29
 375 550 l 29
 225 550 l 29
 225 700 l 29
 525 700 l 29
EndSplineSet
Validated: 1
EndChar

StartChar: braceleft
Encoding: 123 123 92
Width: 750
VWidth: 0
Flags: W
HStem: -150 150<375 525> 200 150<75 225> 550 150<375 525>
VStem: 225 300<-150 0 550 700> 225 150<0 200 350 550>
CounterMasks: 1 e0
LayerCount: 2
Fore
SplineSet
225 700 m 13xf0
 525 700 l 29
 525 550 l 29xf0
 375 550 l 29
 375 0 l 29xe8
 525 0 l 29
 525 -150 l 29
 225 -150 l 21xf0
 225 200 l 5
 75 200 l 5
 75 350 l 5
 225 350 l 5xe8
 225 700 l 13xf0
EndSplineSet
Validated: 1
EndChar

StartChar: braceright
Encoding: 125 125 93
Width: 750
VWidth: 0
Flags: W
HStem: -150 150<225 375> 200 150<525 675> 550 150<225 375>
VStem: 225 300<-150 0 550 700> 375 150<0 200 350 550>
CounterMasks: 1 e0
LayerCount: 2
Fore
SplineSet
525 700 m 21xf0
 525 350 l 5
 675 350 l 5
 675 200 l 5
 525 200 l 5xe8
 525 -150 l 13
 225 -150 l 29
 225 0 l 29xf0
 375 0 l 29
 375 550 l 29xe8
 225 550 l 29
 225 700 l 29
 525 700 l 21xf0
EndSplineSet
Validated: 1
EndChar

StartChar: grave
Encoding: 96 96 94
Width: 750
VWidth: 0
Flags: W
HStem: 450 250<350 400>
VStem: 250 250
LayerCount: 2
Fore
SplineSet
250 700 m 29
 400 700 l 29
 500 450 l 29
 350 450 l 29
 250 700 l 29
EndSplineSet
Validated: 1
EndChar
